<svg width="80" height="80" viewBox="0 0 80 80" fill="none" xmlns="http://www.w3.org/2000/svg">
<path d="M47.5325 38.4562C48.3709 38.3694 49.2066 38.2589 50.0387 38.125V32.2487C48.7587 32.86 47.4237 33.2375 46.0963 33.53C42.73 34.2337 39.3063 34.3162 35.9138 33.9612C34.2038 33.745 32.5575 33.4625 30.8525 32.8562C30.515 32.7287 30.18 32.5862 29.8463 32.4262V37.7087C35.6988 38.6675 41.65 39.0737 47.5325 38.4562Z" fill="black"/>
<path d="M70.3737 52.4837V31.0513C70.3737 28.5662 68.6663 26.2525 65.745 24.2925V14.9062C65.745 13.9875 65.0163 13.2275 64.0675 13.0837C64.7638 12.7887 65.2563 12.18 65.2563 11.4475C65.2563 10.4313 63.1913 7.15125 63.1913 7.15125C63.1913 7.15125 61.1237 10.43 61.1237 11.4475C61.1237 12.17 61.605 12.7737 62.2875 13.0737C61.285 13.1737 60.4987 13.9525 60.4987 14.9062V21.6375C58.6684 20.9393 56.7934 20.3643 54.8862 19.9163C54.9847 19.68 55.0369 19.4271 55.04 19.1712C55.04 17.9425 52.54 13.9787 52.54 13.9787C52.54 13.9787 50.2525 17.6087 50.06 18.9963C47.6113 18.635 45.005 18.425 42.3162 18.34V9.33375C42.3162 8.5075 41.6763 7.8175 40.8313 7.66625C41.4075 7.3975 41.81 6.8775 41.81 6.25875C41.8088 5.36875 40 2.5 40 2.5C40 2.5 38.1912 5.36875 38.1912 6.25875C38.1912 6.87 38.5838 7.385 39.1488 7.65625C38.2575 7.77125 37.5662 8.475 37.5662 9.33375V18.3413C34.9375 18.4288 32.3888 18.6362 29.9912 18.9888C29.7563 17.57 27.515 14.015 27.515 14.015C27.515 14.015 25.015 17.9775 25.015 19.2075C25.015 19.4538 25.0712 19.6862 25.1537 19.9075C23.184 20.3669 21.2488 20.9638 19.3625 21.6937V14.925C19.3625 14.0075 18.6325 13.2475 17.6825 13.1038C18.3787 12.8088 18.8738 12.1988 18.8738 11.4663C18.8738 10.45 16.8062 7.17 16.8062 7.17C16.8062 7.17 14.7388 10.4488 14.7388 11.4663C14.7388 12.1888 15.2212 12.7925 15.9037 13.0925C14.9 13.1938 14.1138 13.9725 14.1138 14.925V24.3925C11.28 26.3325 9.62375 28.61 9.62375 31.0525V52.4875C5.14625 55.0825 2.5 58.275 2.5 61.7287C2.5 70.44 19.29 77.5 40 77.5C60.71 77.5 77.5 70.44 77.5 61.7287C77.5 58.2738 74.8525 55.0812 70.3737 52.4837ZM62.1562 12.4288C62.1562 11.92 63.1913 10.28 63.1913 10.28C63.1913 10.28 64.2262 11.92 64.2262 12.4288C64.224 12.5516 64.1949 12.6725 64.1412 12.7831C64.0874 12.8936 64.0102 12.9911 63.915 13.0688C63.8575 13.0638 63.8013 13.0525 63.7425 13.0525H62.5025C62.4862 13.0525 62.4725 13.0562 62.4562 13.0562C62.3642 12.9793 62.2898 12.8834 62.238 12.7751C62.1863 12.6669 62.1584 12.5487 62.1562 12.4288ZM61.7475 14.9062C61.7475 14.5788 62.0925 14.3038 62.5025 14.3038H63.7425C64.15 14.3038 64.495 14.58 64.495 14.9062V28.4025C64.4929 28.5348 64.4412 28.6615 64.35 28.7575L63.89 28.9925C63.8417 29.0011 63.7928 29.0057 63.7437 29.0063H62.5037C62.095 29.0063 61.7487 28.7288 61.7487 28.4025L61.7475 14.9062ZM52.5387 17.7612C52.5387 17.7612 53.7913 19.7425 53.7913 20.3575C53.7913 20.9712 53.23 21.47 52.5387 21.47C51.8475 21.47 51.2887 20.9725 51.2887 20.3575C51.2887 19.7425 52.5387 17.7612 52.5387 17.7612ZM39.0963 7.11625C39.0963 6.6725 40 5.23875 40 5.23875C40 5.23875 40.9062 6.67125 40.9062 7.11625C40.904 7.21735 40.881 7.3169 40.8386 7.40872C40.7962 7.50054 40.7354 7.58267 40.66 7.65C40.6 7.64375 40.5425 7.6325 40.4812 7.6325H39.3975C39.375 7.6325 39.355 7.6375 39.3325 7.63875C39.2598 7.57216 39.2014 7.49152 39.1608 7.40171C39.1202 7.3119 39.0982 7.21479 39.0963 7.11625ZM38.8162 9.33375C38.8162 9.09 39.0825 8.88375 39.3975 8.88375H40.4812C40.7975 8.88375 41.065 9.09 41.065 9.33375V21.1438C41.0636 21.2342 41.0289 21.321 40.9675 21.3875L40.5863 21.5837C40.5515 21.5888 40.5164 21.5913 40.4812 21.5913H39.3975C39.0825 21.5913 38.8162 21.3863 38.8162 21.1438V9.33375ZM27.515 17.795C27.515 17.795 28.765 19.7775 28.765 20.3925C28.765 21.005 28.2062 21.505 27.515 21.505C26.8237 21.505 26.265 21.0062 26.265 20.3925C26.265 19.7775 27.515 17.795 27.515 17.795ZM15.7738 12.445C15.7738 11.9388 16.8062 10.2988 16.8062 10.2988C16.8062 10.2988 17.8412 11.9388 17.8412 12.445C17.8392 12.5684 17.8101 12.6899 17.7561 12.8008C17.7021 12.9118 17.6245 13.0097 17.5287 13.0875C17.4712 13.0825 17.4162 13.0712 17.3575 13.0712H16.1175C16.1025 13.0712 16.0887 13.075 16.0738 13.075C15.9818 12.9974 15.9075 12.901 15.8558 12.7924C15.8041 12.6837 15.7761 12.5653 15.7738 12.445ZM15.3638 14.9225C15.3638 14.5962 15.7088 14.3212 16.1188 14.3212H17.3588C17.7675 14.3212 18.1138 14.5975 18.1138 14.9225V28.42C18.1113 28.5518 18.0591 28.6777 17.9675 28.7725L17.5075 29.0088C17.4588 29.0174 17.4095 29.022 17.36 29.0225H16.12C15.7113 29.0225 15.365 28.7463 15.365 28.42L15.3638 14.9225ZM13.9838 29.4762C14.025 29.2638 14.1075 29.07 14.1813 28.8725C14.2638 29.175 14.4263 29.4463 14.6475 29.67C14.55 30.3838 14.725 31.1075 15.1062 31.7337C15.9175 33.0375 17.3063 33.95 18.7213 34.675C20.7025 35.6613 22.835 36.29 25.015 36.785V24.0613C25.015 23.73 25.1738 23.44 25.4062 23.2013C25.0463 23.2713 24.6838 23.3237 24.3263 23.4037C22.645 23.7862 20.935 24.2925 19.3625 25.0237V24.3625C19.3813 24.3538 19.3988 24.3438 19.4175 24.3363C20.9525 23.65 22.5537 23.1462 24.1775 22.7612C27.4312 22.0082 30.7498 21.5704 34.0875 21.4538C35.2563 21.41 36.4275 21.4163 37.6 21.445C37.7212 22.06 38.1987 22.5525 38.825 22.7463C37.2558 22.5843 35.6799 22.4955 34.1025 22.48C32.2497 22.471 30.3976 22.5578 28.5538 22.74C29.29 22.8825 29.8475 23.405 29.8475 24.0613V26.3512L29.9137 26.3188C30.7712 25.9463 31.62 25.7313 32.4775 25.5688C34.1888 25.2537 35.9025 25.185 37.6087 25.2825C39.3237 25.4012 40.9987 25.6388 42.6738 26.3525C43.0863 26.54 43.4975 26.7687 43.8787 27.1138C44.24 27.43 44.6637 28.0437 44.4938 28.7463C44.3125 29.4012 43.8612 29.7337 43.4762 29.9887C43.0857 30.2282 42.6643 30.4132 42.2237 30.5387C40.5275 31.03 38.8112 31.025 37.1325 30.8113C36.2912 30.6775 35.4712 30.5225 34.6712 30.1362C34.3 29.9337 33.86 29.6875 33.73 29.165C33.6587 28.5888 34.155 28.2888 34.5 28.1063L34.59 28.27C34.26 28.47 33.9325 28.7975 34.0275 29.1C34.1225 29.4025 34.4963 29.6125 34.8438 29.7587C35.56 30.045 36.4 30.1488 37.1937 30.2087C38.8 30.295 40.4588 30.1425 41.9238 29.6388C42.5813 29.4275 43.3988 28.8875 43.4312 28.5138C43.5337 28.2463 42.8838 27.7137 42.1938 27.48C40.7875 26.9625 39.1213 26.805 37.545 26.7463C35.95 26.71 34.3375 26.8325 32.8025 27.1712C32.0413 27.3412 31.2862 27.5688 30.635 27.88C30.3591 28.0126 30.0956 28.1694 29.8475 28.3488V30.245C30.3125 30.5675 30.8962 30.835 31.5013 31.0475C32.9225 31.5337 34.5625 31.8063 36.1325 31.9738C39.3138 32.31 42.5812 32.2025 45.7062 31.6162C47.2425 31.3137 48.7638 30.8825 50.04 30.1525V25.65C49.5375 25.35 49.0063 25.075 48.445 24.84C46.9988 24.2337 45.43 23.8325 43.8338 23.4963C42.443 23.2231 41.0419 23.0055 39.6338 22.8438H40.4837C40.64 22.8438 40.795 22.825 40.9463 22.7875L41.6262 22.4575L41.7562 22.3688C41.9475 22.1963 42.0913 21.9925 42.1862 21.77C42.8288 21.8488 43.47 21.9263 44.11 22.0362C45.7587 22.325 47.425 22.6875 49.0575 23.305C49.4112 23.4375 49.7613 23.5912 50.1088 23.7562C50.2663 23.13 50.9062 22.6475 51.7088 22.6475H53.2075C54.1275 22.6475 54.875 23.2675 54.875 24.03V37.0375C58.7325 35.8962 62.385 34.095 65.46 31.3862L65.59 31.52C63.3425 33.9762 60.485 35.8875 57.41 37.23C56.5788 37.5887 55.7325 37.91 54.8763 38.2038V39.25C54.8763 39.63 54.6912 39.9762 54.39 40.225L53.64 40.585C53.4979 40.6161 53.353 40.6324 53.2075 40.6338H51.7088C50.8925 40.6338 50.2438 40.1375 50.1 39.4925C49.3088 39.6512 48.5125 39.7875 47.715 39.8975C41.7612 40.7137 35.7087 40.4287 29.8325 39.3475C29.8211 39.5233 29.7737 39.6949 29.6933 39.8516C29.6128 40.0084 29.5011 40.1469 29.365 40.2588L28.615 40.6175C28.4788 40.6475 28.3312 40.6675 28.1825 40.6675H26.6838C25.7612 40.6675 25.0163 40.0475 25.0163 39.2837V38.2575C22.6788 37.6188 20.3675 36.8075 18.2263 35.5938C16.77 34.7375 15.3125 33.695 14.4362 32.1138C14.0087 31.3288 13.7975 30.3762 13.9838 29.4762ZM67.8737 59.1713C67.8737 64.0225 55.9538 69.4475 40 69.4475C24.045 69.4475 12.1238 64.0225 12.1238 59.1713V54.2038C13.3538 54.1375 14.3363 53.2462 14.3363 52.1475V47.3288C14.3363 45.8112 15.735 44.5813 17.4613 44.5813C19.1875 44.5813 20.5888 45.8112 20.5888 47.3288V53.2738C20.5888 55.0387 22.2175 56.4712 24.2237 56.4712C26.2325 56.4712 27.8612 55.0387 27.8612 53.2738V47.2C27.8612 45.6112 29.3263 44.325 31.1325 44.325C32.9412 44.325 34.4062 45.6112 34.4062 47.2V51.0725C34.4062 51.9563 35.2188 52.6712 36.225 52.6712C37.2287 52.6712 38.0413 51.9563 38.0413 51.0725V48C38.0413 46.8525 39.1012 45.9225 40.4075 45.9225C41.7113 45.9225 42.7687 46.8525 42.7687 48V53.275C42.7687 55.04 44.4 56.4725 46.4062 56.4725C48.415 56.4725 50.0438 55.04 50.0438 53.275V47.3625C50.0438 45.8625 51.4275 44.645 53.135 44.645C54.8425 44.645 56.2262 45.8625 56.2262 47.3625V51.6775C56.2262 52.56 57.0387 53.275 58.045 53.275C59.0488 53.275 59.8637 52.56 59.8637 51.6775V48.6562C59.8637 47.87 60.5862 47.2325 61.48 47.2325C62.3762 47.2325 63.1012 47.87 63.1012 48.6562V53.275C63.1012 55.04 64.7275 56.4725 66.7363 56.4725C67.1363 56.4725 67.5137 56.4012 67.8737 56.2962V59.1713Z" fill="black"/>
</svg>
