<svg class="_7KaXww">
    <defs>
        <clipPath id="__id114">
            <path d="M6.03 5.026v610.81c0 49.943 14.354 89.495 45.02 118.683 30.676 29.24 71.625 42.99 124.946 42.99v.502-.503c51.24 0 92.2-13.75 122.876-42.989 30.736-29.198 47.09-68.76 47.09-118.684h.502-.503l1.005-610.81v610.81c0 50.166-16.443 89.998-47.411 119.418l-.342-.362.342.362c-30.907 29.46-72.137 43.27-123.57 43.27-53.501 0-94.731-13.81-125.639-43.27l.342-.362-.342.362c-30.897-29.43-45.32-69.273-45.32-119.418V5.025Z"/>
        </clipPath>
    </defs>
</svg>
