<?xml version="1.0" encoding="UTF-8"?><!DOCTYPE svg PUBLIC '-//W3C//DTD SVG 1.0//EN'
          'http://www.w3.org/TR/2001/REC-SVG-20010904/DTD/svg10.dtd'><svg xmlns="http://www.w3.org/2000/svg" width="471" height="794" stroke="#000" stroke-linecap="square" stroke-miterlimit="10" viewBox="0 0 471.2 794.16"><defs><clipPath id="a"><path d="M0 5v789.16h471.2V5Z"/></clipPath><clipPath id="b" clip-path="url(#a)"><path d="M-168.11 3876.08h720V5h-720Zm0 0"/></clipPath><clipPath id="e" clip-path="url(#b)"><path d="M-168.11 3876.08h720V5h-720Zm0 0"/></clipPath><clipPath id="c"><path d="M0 5v789.16h471.2V5Z"/></clipPath><clipPath id="d" clip-path="url(#c)"><path d="M-168.11 3876.08h720V5h-720Zm0 0"/></clipPath><clipPath id="f" clip-path="url(#d)"><path d="M-168.11 3876.08h720V5h-720Zm0 0"/></clipPath></defs><g fill="#fff" stroke="#fff" stroke-linecap="butt" stroke-width="1.35"><path fill="none" d="M465.52.72v516.9c0 149.6-121.27 270.87-270.87 270.87-73.61 0-140.36-29.36-189.18-77.01" clip-path="url(#e)"/><path stroke="none" d="M141.73 87.74c0-.96-.31-1.72-.93-2.27s-1.48-.83-2.56-.83h-5.12v6.18h5.12c1.1 0 1.96-.28 2.58-.83s.92-1.3.92-2.24m-5.09-11.21h-3.52v5.36h3.52c.96 0 1.72-.24 2.26-.72s.81-1.14.81-1.99c0-.82-.27-1.47-.8-1.94s-1.29-.71-2.27-.71m8.31 11.3c0 1.69-.59 3.07-1.78 4.16s-2.74 1.63-4.67 1.63h-8.52v-19.9h6.96c1.79 0 3.23.5 4.32 1.49s1.64 2.26 1.64 3.81-.55 2.79-1.66 3.74c1.17.38 2.07 1.01 2.73 1.9s.98 1.94.98 3.16M156.94 88.01v-.27h-3.8c-1.75 0-2.62.6-2.62 1.81l.24 1.08c.94.7 1.57.88 2.35.88 1.08 0 1.99-.33 2.73-.99s1.1-1.5 1.1-2.5m3.19-3.34v8.95h-2.95v-1.68c-1.11 1.32-2.68 1.99-4.73 1.99-1.55 0-2.79-.39-3.73-1.18s-1.42-1.82-1.42-3.1.49-2.31 1.48-3.07 2.31-1.14 3.98-1.14h4.19v-.96c0-1.02-.28-1.81-.83-2.35s-1.33-.81-2.33-.81c-1.51 0-2.87.73-4.1 2.2l-1.84-1.87c1.45-2.11 3.53-3.16 6.24-3.16 1.85 0 3.32.54 4.41 1.63s1.64 2.6 1.64 4.55M161.94 91.08l1.81-1.99c1.35 1.41 2.73 2.11 4.16 2.11l1.28-.15c.88-.58 1.1-.99 1.1-1.51l-.15-.73c-.6-.5-1.14-.79-1.93-1.11l-1.51-.63c-1.35-.56-2.32-1.17-2.94-1.82s-.92-1.48-.92-2.49c0-1.31.49-2.34 1.46-3.12s2.22-1.16 3.75-1.16c2.13 0 3.84.76 5.12 2.29l-1.72 1.96c-.96-1-2.12-1.51-3.46-1.51s-2.02.47-2.02 1.42l.14.67c.56.5 1.08.78 1.82 1.08l1.42.57c1.43.6 2.46 1.24 3.09 1.91s.95 1.52.95 2.55c0 1.43-.52 2.54-1.57 3.34-1.04.78-2.35 1.17-3.92 1.17-2.51 0-4.5-.95-5.96-2.86M185.58 88.01v-.27h-3.8c-1.75 0-2.62.6-2.62 1.81l.24 1.08c.94.7 1.57.88 2.35.88 1.08 0 1.99-.33 2.73-.99s1.1-1.5 1.1-2.5m3.19-3.34v8.95h-2.95v-1.68c-1.11 1.32-2.68 1.99-4.73 1.99-1.55 0-2.79-.39-3.73-1.18s-1.42-1.82-1.42-3.1.49-2.31 1.48-3.07 2.31-1.14 3.98-1.14h4.19v-.96c0-1.02-.28-1.81-.83-2.35s-1.33-.81-2.33-.81c-1.51 0-2.87.73-4.1 2.2l-1.84-1.87c1.45-2.11 3.52-3.16 6.24-3.16 1.85 0 3.32.54 4.41 1.63s1.64 2.6 1.64 4.55M110.05 92.46c.74-.79 1.09-1.85 1.09-3.23 0-1.32-.35-2.38-1.09-3.17s-1.75-1.22-3.02-1.22h-6.73v8.78h6.74c1.27 0 2.27-.37 3.02-1.16M110.05 81.37c.74-.79 1.09-1.85 1.09-3.23 0-1.32-.35-2.38-1.09-3.17s-1.75-1.22-3.02-1.22h-6.73v8.78h6.74c1.27 0 2.27-.37 3.02-1.16M122.81 81.25c.74-.78 1.09-1.82 1.09-3.18 0-1.3-.35-2.34-1.09-3.12s-1.75-1.2-3.02-1.2h-6.74v8.65h6.74c1.27 0 2.27-.36 3.02-1.15M122.81 92.47c.74-.78 1.09-1.82 1.09-3.18 0-1.3-.35-2.34-1.09-3.12s-1.75-1.2-3.02-1.2h-6.74v8.64h6.74c1.27 0 2.27-.36 3.02-1.15M193.31 85.78h3.8c1.05 0 1.86-.28 2.44-.84s.87-1.31.87-2.24-.29-1.67-.87-2.23-1.39-.85-2.44-.85h-3.8Zm-1.16 7.82V78.55h5.01c1.36 0 2.44.39 3.26 1.16s1.22 1.76 1.22 2.97c0 1.23-.4 2.24-1.21 3.01s-1.89 1.16-3.27 1.16h-3.85v6.75ZM208.25 82.59v1h-.56c-.98 0-1.84.32-2.57.97s-1.1 1.5-1.1 2.57v6.48h-1.12V82.59h1.08v1.87c.79-1.29 1.98-1.94 3.58-1.94l.24.01.42.06M209.21 87.33h7.92c.05-1.17-.29-2.12-1.02-2.84s-1.62-1.08-2.7-1.08c-1.09 0-2.02.37-2.8 1.12-.79.73-1.26 1.67-1.41 2.81m8.99 1.03h-9.04c.06 1.28.51 2.33 1.35 3.16s1.88 1.24 3.1 1.24c1.45 0 2.65-.58 3.6-1.73l.72.75c-1.15 1.37-2.6 2.05-4.34 2.05-1.54.03-2.86-.52-3.97-1.67s-1.65-2.49-1.62-4.06c-.03-1.57.5-2.92 1.59-4.07s2.38-1.71 3.87-1.68c1.36 0 2.5.46 3.43 1.37s1.4 2.09 1.4 3.54l-.03.87M221.24 79.62v2.97h2.84v1.05h-2.84v9.97h-1.12v-9.97h-1.57v-1.05h1.57v-3.01c0-1.11.29-1.94.86-2.49s1.38-.82 2.4-.82l.84.05.39 1.1-.64-.09c-1.95 0-2.74.77-2.74 2.3M225 87.33h7.92c.05-1.17-.29-2.12-1.02-2.84s-1.62-1.08-2.7-1.08c-1.09 0-2.02.37-2.8 1.12-.79.73-1.26 1.67-1.41 2.81m8.99 1.03h-9.04c.06 1.28.51 2.33 1.35 3.16s1.88 1.24 3.1 1.24c1.45 0 2.65-.58 3.6-1.73l.71.75c-1.15 1.37-2.59 2.05-4.34 2.05-1.54.03-2.86-.52-3.97-1.67s-1.65-2.49-1.62-4.06c-.03-1.57.5-2.92 1.59-4.07s2.38-1.71 3.87-1.68c1.36 0 2.5.46 3.43 1.37s1.4 2.09 1.4 3.54l-.03.87M241.08 82.59v1h-.56c-.98 0-1.84.32-2.57.97s-1.1 1.5-1.1 2.57v6.48h-1.12V82.59h1.08v1.87c.79-1.29 1.98-1.94 3.58-1.94l.24.01.43.06M242.04 87.33h7.92c.05-1.17-.29-2.12-1.02-2.84s-1.62-1.08-2.7-1.08c-1.09 0-2.02.37-2.8 1.12-.79.73-1.26 1.67-1.41 2.81m8.99 1.03H242c.06 1.28.51 2.33 1.35 3.16s1.88 1.24 3.1 1.24c1.45 0 2.65-.58 3.6-1.73l.71.75c-1.15 1.37-2.59 2.05-4.34 2.05-1.54.03-2.86-.52-3.97-1.67s-1.65-2.49-1.62-4.06c-.03-1.57.5-2.92 1.59-4.07s2.38-1.71 3.87-1.68c1.36 0 2.5.46 3.43 1.37s1.4 2.09 1.4 3.54l-.03.87M261.26 86.65v6.96h-1.12v-6.89c0-.97-.27-1.76-.82-2.37s-1.28-.91-2.2-.91c-.94 0-1.71.31-2.32.94-.6.61-.9 1.39-.9 2.35v6.89h-1.12V82.59h1.07v1.48c.77-1.14 1.92-1.71 3.44-1.71 1.22 0 2.19.39 2.9 1.18s1.06 1.82 1.06 3.11M262.76 88.09c-.03-1.57.51-2.92 1.62-4.06s2.44-1.7 3.97-1.67c1.82 0 3.27.75 4.36 2.26l-.81.66c-.91-1.23-2.09-1.85-3.56-1.85-1.25 0-2.3.45-3.15 1.36s-1.27 2-1.27 3.3c0 1.31.43 2.42 1.27 3.32s1.89 1.36 3.13 1.36c1.45 0 2.64-.62 3.58-1.85l.81.66c-1.09 1.51-2.55 2.26-4.39 2.26-1.52.03-2.84-.53-3.95-1.68s-1.65-2.51-1.62-4.07M274.41 87.33h7.92c.05-1.17-.29-2.12-1.02-2.84s-1.62-1.08-2.69-1.08c-1.09 0-2.02.37-2.8 1.12-.79.73-1.26 1.67-1.41 2.81m8.99 1.03h-9.04c.06 1.28.51 2.33 1.35 3.16s1.88 1.24 3.1 1.24c1.45 0 2.65-.58 3.6-1.73l.71.75c-1.15 1.37-2.59 2.05-4.34 2.05-1.54.03-2.86-.52-3.97-1.67s-1.65-2.49-1.62-4.06c-.03-1.57.5-2.92 1.59-4.07s2.38-1.71 3.87-1.68c1.36 0 2.5.46 3.43 1.37s1.4 2.09 1.4 3.54l-.03.87" clip-path="url(#f)"/></g></svg>