<svg width="184" height="21" viewBox="0 0 184 21" fill="none" xmlns="http://www.w3.org/2000/svg">
<g clip-path="url(#clip0_48_866)">
<mask id="mask0_48_866" style="mask-type:luminance" maskUnits="userSpaceOnUse" x="-269" y="-69" width="721" height="3870">
<path d="M-268.296 3800.74H451.398V-68.7008H-268.296V3800.74Z" fill="white"/>
</mask>
<g mask="url(#mask0_48_866)">
<path d="M41.4124 14.004C41.4124 13.0445 41.1025 12.2848 40.4828 11.735C39.8631 11.1852 39.0034 10.9054 37.9239 10.9054H32.8061V17.0827H37.9239C39.0234 17.0827 39.8831 16.8029 40.5028 16.2531C41.1225 15.7033 41.4224 14.9536 41.4224 14.014M36.3346 2.80881H32.8161V8.16653H36.3346C37.2942 8.16653 38.0538 7.92663 38.5936 7.44684C39.1334 6.96704 39.4033 6.30732 39.4033 5.45768C39.4033 4.63803 39.1334 3.9883 38.6036 3.5185C38.0738 3.0487 37.3141 2.80881 36.3346 2.80881ZM44.641 14.104C44.641 15.7933 44.0513 17.1727 42.8618 18.2622C41.6723 19.3518 40.123 19.8915 38.1938 19.8915H29.6774V0H36.6344C38.4237 0 39.8631 0.499786 40.9526 1.48937C42.0421 2.47895 42.5919 3.7484 42.5919 5.29775C42.5919 6.84709 42.0421 8.08656 40.9326 9.03616C42.1021 9.416 43.0017 10.0457 43.6615 10.9354C44.3212 11.825 44.641 12.8745 44.641 14.094" fill="white"/>
</g>
<mask id="mask1_48_866" style="mask-type:luminance" maskUnits="userSpaceOnUse" x="-269" y="-69" width="721" height="3870">
<path d="M-268.296 3800.74H451.398V-68.7008H-268.296V3800.74Z" fill="white"/>
</mask>
<g mask="url(#mask1_48_866)">
<path d="M56.6159 14.274V14.0041H52.8175C51.0683 14.0041 50.1986 14.6038 50.1986 15.8133L50.4385 16.8929C51.3781 17.5926 52.0079 17.7725 52.7875 17.7725C53.8671 17.7725 54.7767 17.4426 55.5164 16.7829C56.2561 16.1232 56.6159 15.2835 56.6159 14.284M59.8046 10.9454V19.8916H56.8558V18.2123C55.7463 19.5317 54.1769 20.2015 52.1278 20.2015C50.5785 20.2015 49.339 19.8116 48.3994 19.022C47.4598 18.2323 46.98 17.2027 46.98 15.9233C46.98 14.6438 47.4698 13.6142 48.4594 12.8546C49.449 12.0949 50.7684 11.7151 52.4377 11.7151H56.6259V10.7555C56.6259 9.73589 56.346 8.94623 55.7963 8.40646C55.2465 7.86669 54.4668 7.59681 53.4672 7.59681C51.9579 7.59681 50.5985 8.32649 49.369 9.79587L47.5298 7.92667C48.9792 5.81756 51.0583 4.76801 53.7671 4.76801C55.6163 4.76801 57.0857 5.30777 58.1753 6.39731C59.2648 7.48685 59.8146 8.99621 59.8146 10.9454" fill="white"/>
</g>
<mask id="mask2_48_866" style="mask-type:luminance" maskUnits="userSpaceOnUse" x="-269" y="-69" width="721" height="3870">
<path d="M-268.296 3800.74H451.398V-68.7008H-268.296V3800.74Z" fill="white"/>
</mask>
<g mask="url(#mask2_48_866)">
<path d="M61.6138 17.3427L63.423 15.3535C64.7725 16.7629 66.1519 17.4626 67.5813 17.4626L68.8607 17.3127C69.7403 16.733 69.9602 16.3231 69.9602 15.8034L69.8103 15.0737C69.2106 14.5739 68.6708 14.284 67.8811 13.9641L66.3718 13.3344C65.0223 12.7746 64.0528 12.1649 63.433 11.5152C62.8133 10.8654 62.5134 10.0358 62.5134 9.02623C62.5134 7.71679 63.0032 6.68722 63.9728 5.90755C64.9424 5.12788 66.1919 4.74805 67.7212 4.74805C69.8503 4.74805 71.5596 5.50772 72.839 7.03707L71.1198 8.99624C70.1602 7.99667 69.0007 7.48688 67.6612 7.48688C66.3218 7.48688 65.6421 7.95668 65.6421 8.90628L65.782 9.57599C66.3418 10.0758 66.8616 10.3557 67.6012 10.6555L69.0207 11.2253C70.4501 11.825 71.4796 12.4648 72.1093 13.1345C72.7391 13.8042 73.0589 14.6538 73.0589 15.6834C73.0589 17.1128 72.5392 18.2223 71.4896 19.022C70.4501 19.8017 69.1406 20.1915 67.5713 20.1915C65.0623 20.1915 63.0732 19.2419 61.6138 17.3327" fill="white"/>
</g>
<mask id="mask3_48_866" style="mask-type:luminance" maskUnits="userSpaceOnUse" x="-269" y="-69" width="721" height="3870">
<path d="M-268.296 3800.74H451.398V-68.7008H-268.296V3800.74Z" fill="white"/>
</mask>
<g mask="url(#mask3_48_866)">
<path d="M85.2438 14.274V14.0041H81.4454C79.6961 14.0041 78.8265 14.6038 78.8265 15.8133L79.0664 16.8929C80.006 17.5926 80.6357 17.7725 81.4154 17.7725C82.495 17.7725 83.4046 17.4426 84.1442 16.7829C84.8839 16.1232 85.2438 15.2835 85.2438 14.284M88.4324 10.9454V19.8916H85.4837V18.2123C84.3742 19.5317 82.8048 20.2015 80.7557 20.2015C79.2063 20.2015 77.9669 19.8116 77.0273 19.022C76.0877 18.2323 75.6079 17.2027 75.6079 15.9233C75.6079 14.6438 76.0977 13.6142 77.0872 12.8546C78.0768 12.0949 79.3963 11.7151 81.0656 11.7151H85.2538V10.7555C85.2538 9.73589 84.9739 8.94623 84.4241 8.40646C83.8744 7.86669 83.0947 7.59681 82.0951 7.59681C80.5858 7.59681 79.2263 8.32649 77.9969 9.79587L76.1576 7.92667C77.607 5.81756 79.6761 4.76801 82.395 4.76801C84.2442 4.76801 85.7136 5.30777 86.8031 6.39731C87.8927 7.48685 88.4424 8.99621 88.4424 10.9454" fill="white"/>
</g>
<mask id="mask4_48_866" style="mask-type:luminance" maskUnits="userSpaceOnUse" x="-269" y="-69" width="721" height="3870">
<path d="M-268.296 3800.74H451.398V-68.7008H-268.296V3800.74Z" fill="white"/>
</mask>
<g mask="url(#mask4_48_866)">
<path d="M9.74583 18.7221C10.4855 17.9324 10.8354 16.8728 10.8354 15.4934C10.8354 14.174 10.4855 13.1144 9.74583 12.3248C9.00614 11.5351 7.99657 11.1053 6.72711 11.1053H-3.05176e-05V19.8816H6.73711C8.00657 19.8816 9.00614 19.5117 9.75582 18.7221" fill="white"/>
</g>
<mask id="mask5_48_866" style="mask-type:luminance" maskUnits="userSpaceOnUse" x="-269" y="-69" width="721" height="3870">
<path d="M-268.296 3800.74H451.398V-68.7008H-268.296V3800.74Z" fill="white"/>
</mask>
<g mask="url(#mask5_48_866)">
<path d="M9.74583 7.63679C10.4855 6.84712 10.8354 5.78757 10.8354 4.40816C10.8354 3.08872 10.4855 2.02917 9.74583 1.2395C9.00614 0.449838 7.99657 0.0200195 6.72711 0.0200195H-3.05176e-05V8.79629H6.73711C8.00657 8.79629 9.00614 8.42645 9.75582 7.63679" fill="white"/>
</g>
<mask id="mask6_48_866" style="mask-type:luminance" maskUnits="userSpaceOnUse" x="-269" y="-69" width="721" height="3870">
<path d="M-268.296 3800.74H451.398V-68.7008H-268.296V3800.74Z" fill="white"/>
</mask>
<g mask="url(#mask6_48_866)">
<path d="M22.5004 7.51684C23.2401 6.73717 23.59 5.69761 23.59 4.33819C23.59 3.03874 23.2401 1.99918 22.5004 1.21951C21.7607 0.439838 20.7512 0.0200195 19.4817 0.0200195H12.7446V8.66635H19.4817C20.7512 8.66635 21.7507 8.3065 22.5004 7.51684Z" fill="white"/>
</g>
<mask id="mask7_48_866" style="mask-type:luminance" maskUnits="userSpaceOnUse" x="-269" y="-69" width="721" height="3870">
<path d="M-268.296 3800.74H451.398V-68.7008H-268.296V3800.74Z" fill="white"/>
</mask>
<g mask="url(#mask7_48_866)">
<path d="M22.5004 18.732C23.2401 17.9524 23.59 16.9128 23.59 15.5534C23.59 14.2539 23.2401 13.2144 22.5004 12.4347C21.7607 11.655 20.7512 11.2352 19.4817 11.2352H12.7446V19.8716H19.4817C20.7512 19.8716 21.7507 19.5117 22.5004 18.722" fill="white"/>
</g>
<mask id="mask8_48_866" style="mask-type:luminance" maskUnits="userSpaceOnUse" x="-269" y="-69" width="721" height="3870">
<path d="M-268.296 3800.74H451.398V-68.7008H-268.296V3800.74Z" fill="white"/>
</mask>
<g mask="url(#mask8_48_866)">
<path d="M92.9705 12.0449H96.7689C97.8185 12.0449 98.6281 11.765 99.2079 11.2053C99.7876 10.6455 100.077 9.89583 100.077 8.96623C100.077 8.03662 99.7876 7.29694 99.2079 6.73718C98.6281 6.17741 97.8185 5.88754 96.7689 5.88754H92.9705V12.0449ZM91.811 19.8616V4.81799H96.8189C98.1783 4.81799 99.2578 5.20782 100.077 5.9775C100.897 6.74717 101.297 7.73675 101.297 8.94624C101.297 10.1757 100.897 11.1853 100.087 11.955C99.2778 12.7246 98.1983 13.1145 96.8189 13.1145H92.9705V19.8616H91.811Z" fill="white"/>
</g>
<mask id="mask9_48_866" style="mask-type:luminance" maskUnits="userSpaceOnUse" x="-269" y="-69" width="721" height="3870">
<path d="M-268.296 3800.74H451.398V-68.7008H-268.296V3800.74Z" fill="white"/>
</mask>
<g mask="url(#mask9_48_866)">
<path d="M107.904 8.85622V9.8558H107.344C106.365 9.8558 105.505 10.1757 104.775 10.8254C104.046 11.4751 103.676 12.3248 103.676 13.3943V19.8716H102.556V8.85622H103.636V10.7254C104.426 9.43598 105.615 8.78625 107.214 8.78625L107.454 8.79625L107.874 8.85622" fill="white"/>
</g>
<mask id="mask10_48_866" style="mask-type:luminance" maskUnits="userSpaceOnUse" x="-269" y="-69" width="721" height="3870">
<path d="M-268.296 3800.74H451.398V-68.7008H-268.296V3800.74Z" fill="white"/>
</mask>
<g mask="url(#mask10_48_866)">
<path d="M108.864 13.5943H116.78C116.83 12.4248 116.491 11.4752 115.761 10.7555C115.031 10.0358 114.142 9.67595 113.062 9.67595C111.972 9.67595 111.043 10.0458 110.263 10.7955C109.474 11.5252 109.004 12.4648 108.854 13.6043M117.84 14.6338H108.804C108.864 15.9133 109.314 16.9628 110.153 17.7925C110.993 18.6221 112.032 19.032 113.252 19.032C114.701 19.032 115.901 18.4522 116.85 17.3027L117.57 18.0524C116.421 19.4218 114.971 20.1015 113.232 20.1015C111.693 20.1315 110.373 19.5817 109.264 18.4322C108.154 17.2827 107.614 15.9433 107.644 14.3739C107.614 12.8046 108.144 11.4552 109.234 10.3057C110.323 9.15616 111.613 8.5964 113.102 8.62639C114.461 8.62639 115.601 9.0862 116.531 9.99581C117.46 10.9054 117.93 12.0849 117.93 13.5343L117.9 14.4039" fill="white"/>
</g>
<mask id="mask11_48_866" style="mask-type:luminance" maskUnits="userSpaceOnUse" x="-269" y="-69" width="721" height="3870">
<path d="M-268.296 3800.74H451.398V-68.7008H-268.296V3800.74Z" fill="white"/>
</mask>
<g mask="url(#mask11_48_866)">
<path d="M120.889 5.88752V8.85626H123.727V9.90582H120.889V19.8716H119.769V9.90582H118.2V8.85626H119.769V5.84754C119.769 4.73801 120.059 3.90836 120.629 3.35859C121.199 2.80883 122.008 2.53894 123.028 2.53894L123.867 2.58892L124.257 3.68845L123.617 3.5985C121.668 3.5985 120.879 4.36816 120.879 5.89752" fill="white"/>
</g>
<mask id="mask12_48_866" style="mask-type:luminance" maskUnits="userSpaceOnUse" x="-269" y="-69" width="721" height="3870">
<path d="M-268.296 3800.74H451.398V-68.7008H-268.296V3800.74Z" fill="white"/>
</mask>
<g mask="url(#mask12_48_866)">
<path d="M124.647 13.5943H132.564C132.614 12.4248 132.274 11.4752 131.544 10.7555C130.814 10.0358 129.925 9.67595 128.845 9.67595C127.756 9.67595 126.826 10.0458 126.046 10.7955C125.257 11.5252 124.787 12.4648 124.637 13.6043M133.623 14.6338H124.587C124.647 15.9133 125.097 16.9628 125.936 17.7925C126.776 18.6221 127.816 19.032 129.035 19.032C130.485 19.032 131.684 18.4522 132.634 17.3027L133.343 18.0524C132.194 19.4218 130.754 20.1015 129.005 20.1015C127.466 20.1315 126.146 19.5817 125.037 18.4322C123.927 17.2827 123.388 15.9433 123.418 14.3739C123.388 12.8046 123.917 11.4552 125.007 10.3057C126.096 9.15616 127.386 8.5964 128.875 8.62639C130.235 8.62639 131.374 9.0862 132.304 9.99581C133.233 10.9054 133.703 12.0849 133.703 13.5343L133.673 14.4039" fill="white"/>
</g>
<mask id="mask13_48_866" style="mask-type:luminance" maskUnits="userSpaceOnUse" x="-269" y="-69" width="721" height="3870">
<path d="M-268.296 3800.74H451.398V-68.7008H-268.296V3800.74Z" fill="white"/>
</mask>
<g mask="url(#mask13_48_866)">
<path d="M140.72 8.85622V9.8558H140.16C139.181 9.8558 138.321 10.1757 137.592 10.8254C136.862 11.4751 136.492 12.3248 136.492 13.3943V19.8716H135.372V8.85622H136.452V10.7254C137.242 9.43598 138.431 8.78625 140.031 8.78625L140.27 8.79625L140.7 8.85622" fill="white"/>
</g>
<mask id="mask14_48_866" style="mask-type:luminance" maskUnits="userSpaceOnUse" x="-269" y="-69" width="721" height="3870">
<path d="M-268.296 3800.74H451.398V-68.7008H-268.296V3800.74Z" fill="white"/>
</mask>
<g mask="url(#mask14_48_866)">
<path d="M141.68 13.5943H149.596C149.646 12.4248 149.307 11.4752 148.577 10.7555C147.847 10.0358 146.958 9.67595 145.878 9.67595C144.789 9.67595 143.859 10.0458 143.079 10.7955C142.29 11.5252 141.82 12.4648 141.67 13.6043M150.656 14.6338H141.64C141.7 15.9133 142.15 16.9628 142.989 17.7925C143.829 18.6221 144.868 19.032 146.088 19.032C147.537 19.032 148.737 18.4522 149.686 17.3027L150.396 18.0524C149.247 19.4218 147.807 20.1015 146.058 20.1015C144.519 20.1315 143.199 19.5817 142.09 18.4322C140.98 17.2827 140.44 15.9433 140.47 14.3739C140.44 12.8046 140.97 11.4552 142.06 10.3057C143.149 9.15616 144.439 8.5964 145.928 8.62639C147.287 8.62639 148.427 9.0862 149.357 9.99581C150.286 10.9054 150.756 12.0849 150.756 13.5343L150.726 14.4039" fill="white"/>
</g>
<mask id="mask15_48_866" style="mask-type:luminance" maskUnits="userSpaceOnUse" x="-269" y="-69" width="721" height="3870">
<path d="M-268.296 3800.74H451.398V-68.7008H-268.296V3800.74Z" fill="white"/>
</mask>
<g mask="url(#mask15_48_866)">
<path d="M160.892 12.9145V19.8716H159.772V12.9845C159.772 12.0149 159.502 11.2252 158.952 10.6155C158.403 10.0058 157.673 9.70589 156.753 9.70589C155.814 9.70589 155.044 10.0157 154.434 10.6455C153.835 11.2552 153.535 12.0349 153.535 12.9945V19.8816H152.415V8.85624H153.485V10.3356C154.254 9.1961 155.404 8.62634 156.923 8.62634C158.143 8.62634 159.112 9.01618 159.822 9.80584C160.532 10.5955 160.882 11.6251 160.882 12.9145" fill="white"/>
</g>
<mask id="mask16_48_866" style="mask-type:luminance" maskUnits="userSpaceOnUse" x="-269" y="-69" width="721" height="3870">
<path d="M-268.296 3800.74H451.398V-68.7008H-268.296V3800.74Z" fill="white"/>
</mask>
<g mask="url(#mask16_48_866)">
<path d="M162.391 14.354C162.361 12.7846 162.901 11.4352 164.01 10.2957C165.12 9.15616 166.449 8.5964 167.979 8.62639C169.798 8.62639 171.247 9.37607 172.337 10.8854L171.527 11.5451C170.618 10.3157 169.438 9.69593 167.969 9.69593C166.719 9.69593 165.67 10.1457 164.82 11.0554C163.97 11.965 163.551 13.0545 163.551 14.354C163.551 15.6634 163.98 16.7729 164.82 17.6725C165.66 18.5722 166.709 19.032 167.949 19.032C169.398 19.032 170.588 18.4122 171.527 17.1828L172.337 17.8425C171.247 19.3518 169.788 20.1015 167.949 20.1015C166.429 20.1315 165.11 19.5717 164 18.4222C162.891 17.2727 162.351 15.9133 162.381 14.354" fill="white"/>
</g>
<mask id="mask17_48_866" style="mask-type:luminance" maskUnits="userSpaceOnUse" x="-269" y="-69" width="721" height="3870">
<path d="M-268.296 3800.74H451.398V-68.7008H-268.296V3800.74Z" fill="white"/>
</mask>
<g mask="url(#mask17_48_866)">
<path d="M174.036 13.5943H181.953C182.003 12.4248 181.663 11.4752 180.933 10.7555C180.203 10.0358 179.314 9.67595 178.244 9.67595C177.155 9.67595 176.225 10.0458 175.445 10.7955C174.656 11.5252 174.186 12.4648 174.036 13.6043M183.022 14.6338H173.986C174.046 15.9133 174.496 16.9628 175.336 17.7925C176.175 18.6221 177.215 19.032 178.434 19.032C179.884 19.032 181.083 18.4522 182.033 17.3027L182.742 18.0524C181.593 19.4218 180.153 20.1015 178.404 20.1015C176.865 20.1315 175.545 19.5817 174.436 18.4322C173.326 17.2827 172.787 15.9433 172.817 14.3739C172.787 12.8046 173.316 11.4552 174.406 10.3057C175.495 9.15616 176.785 8.5964 178.274 8.62639C179.634 8.62639 180.773 9.0862 181.703 9.99581C182.632 10.9054 183.102 12.0849 183.102 13.5343L183.072 14.4039" fill="white"/>
</g>
</g>
<defs>
<clipPath id="clip0_48_866">
<rect width="183.102" height="20.2014" fill="white"/>
</clipPath>
</defs>
</svg>
